<svg width="32" height="32" viewBox="0 0 32 32" fill="none" xmlns="http://www.w3.org/2000/svg">
<rect x="0.5" y="0.5" width="31" height="31" rx="11.5" fill="#4D4D4D"/>
<rect x="0.5" y="0.5" width="31" height="31" rx="11.5" stroke="#D9D9D9"/>
<mask id="mask0_2064_257" style="mask-type:alpha" maskUnits="userSpaceOnUse" x="4" y="4" width="24" height="24">
<rect x="4" y="4" width="24" height="24" fill="#D9D9D9"/>
</mask>
<g mask="url(#mask0_2064_257)">
<path d="M10 23H22V21H10V23ZM10 19H22V17H10V19ZM10 15H22V14.1L20.55 13H11.45L10 14.1V15ZM14.05 11H17.95L16 9.525L14.05 11ZM8 25V15.625L6.2 17L5 15.4L8 13.1V10H10V11.575L16 7L27 15.4L25.8 16.975L24 15.625V25H8ZM8 9C8 8.16667 8.29167 7.45833 8.875 6.875C9.45833 6.29167 10.1667 6 11 6C11.2833 6 11.5208 5.90417 11.7125 5.7125C11.9042 5.52083 12 5.28333 12 5H14C14 5.83333 13.7083 6.54167 13.125 7.125C12.5417 7.70833 11.8333 8 11 8C10.7167 8 10.4792 8.09583 10.2875 8.2875C10.0958 8.47917 10 8.71667 10 9H8Z" fill="#D9D9D9"/>
</g>
</svg>
