<svg width="32" height="33" viewBox="0 0 32 33" fill="none" xmlns="http://www.w3.org/2000/svg">
<path d="M4.504 23V21.866L7.096 21.65H8.392L11.02 21.866V23H4.504ZM5.746 23C5.758 22.4 5.764 21.8 5.764 21.2C5.776 20.588 5.782 19.976 5.782 19.364C5.782 18.74 5.782 18.116 5.782 17.492V16.772C5.782 16.16 5.782 15.548 5.782 14.936C5.782 14.312 5.776 13.694 5.764 13.082C5.764 12.47 5.758 11.864 5.746 11.264H9.454C9.442 11.852 9.43 12.458 9.418 13.082C9.406 13.694 9.4 14.306 9.4 14.918C9.4 15.518 9.4 16.136 9.4 16.772V17.492C9.4 18.104 9.4 18.716 9.4 19.328C9.4 19.94 9.406 20.552 9.418 21.164C9.43 21.776 9.442 22.388 9.454 23H5.746ZM7.582 17.546V16.34H11.578V17.546H7.582ZM11.272 18.95L11.002 17.24V16.718L11.272 15.08H12.46V18.95H11.272ZM4.504 12.398V11.264H7.402V12.614H7.096L4.504 12.398ZM12.532 14.324L12.046 11.786L12.712 12.38H7.672V11.264H14.062L14.188 14.324H12.532ZM16.2577 23C16.2697 22.4 16.2757 21.8 16.2757 21.2C16.2877 20.588 16.2937 19.976 16.2937 19.364C16.2937 18.74 16.2937 18.116 16.2937 17.492V16.772C16.2937 16.148 16.2937 15.536 16.2937 14.936C16.2937 14.324 16.2877 13.712 16.2757 13.1C16.2757 12.476 16.2697 11.864 16.2577 11.264H19.8217C19.8097 11.852 19.7977 12.452 19.7857 13.064C19.7857 13.676 19.7857 14.288 19.7857 14.9C19.7857 15.512 19.7857 16.136 19.7857 16.772V17.492C19.7857 18.104 19.7857 18.716 19.7857 19.328C19.7857 19.94 19.7857 20.552 19.7857 21.164C19.7977 21.776 19.8097 22.388 19.8217 23H16.2577ZM15.0157 23V21.866L17.6437 21.65H18.5077L20.7757 21.866V23H15.0157ZM15.0157 12.398V11.264H21.0457V12.398L18.5077 12.614H17.6437L15.0157 12.398ZM21.8197 23V21.866L24.1777 21.65H25.0057L27.4177 21.866V23H21.8197ZM22.4317 12.398V11.264H26.7517V12.398L24.6457 12.614H23.9797L22.4317 12.398ZM18.2737 20.318L18.2197 18.878H18.4897L19.4977 17.618L24.6817 11.264H26.2297L18.2737 20.318ZM23.0797 23L20.3077 17.312L22.5757 14.648L27.0757 23H23.0797Z" fill="white"/>
</svg>
