<svg width="32" height="32" viewBox="0 0 32 32" fill="none" xmlns="http://www.w3.org/2000/svg">
<rect x="0.5" y="0.5" width="31" height="31" rx="11.5" fill="#4D4D4D"/>
<rect x="0.5" y="0.5" width="31" height="31" rx="11.5" stroke="#D9D9D9"/>
<mask id="mask0_2064_236" style="mask-type:alpha" maskUnits="userSpaceOnUse" x="4" y="4" width="24" height="24">
<rect x="4" y="4" width="24" height="24" fill="#D9D9D9"/>
</mask>
<g mask="url(#mask0_2064_236)">
<path d="M10 26V21.75C9.35 21.4667 8.77917 21.0875 8.2875 20.6125C7.79583 20.1375 7.37917 19.6 7.0375 19C6.69583 18.4 6.4375 17.7583 6.2625 17.075C6.0875 16.3917 6 15.7 6 15C6 12.3667 6.93333 10.2083 8.8 8.525C10.6667 6.84167 13.0667 6 16 6C18.9333 6 21.3333 6.84167 23.2 8.525C25.0667 10.2083 26 12.3667 26 15C26 15.7 25.9125 16.3917 25.7375 17.075C25.5625 17.7583 25.3042 18.4 24.9625 19C24.6208 19.6 24.2042 20.1375 23.7125 20.6125C23.2208 21.0875 22.65 21.4667 22 21.75V26H10ZM12 24H13V22H15V24H17V22H19V24H20V20.45C20.6333 20.3 21.1958 20.05 21.6875 19.7C22.1792 19.35 22.5958 18.9333 22.9375 18.45C23.2792 17.9667 23.5417 17.4333 23.725 16.85C23.9083 16.2667 24 15.65 24 15C24 12.9167 23.2625 11.2292 21.7875 9.9375C20.3125 8.64583 18.3833 8 16 8C13.6167 8 11.6875 8.64583 10.2125 9.9375C8.7375 11.2292 8 12.9167 8 15C8 15.65 8.09167 16.2667 8.275 16.85C8.45833 17.4333 8.72083 17.9667 9.0625 18.45C9.40417 18.9333 9.825 19.35 10.325 19.7C10.825 20.05 11.3833 20.3 12 20.45V24ZM14.5 19H17.5L16 16L14.5 19ZM12.5 17C13.05 17 13.5208 16.8042 13.9125 16.4125C14.3042 16.0208 14.5 15.55 14.5 15C14.5 14.45 14.3042 13.9792 13.9125 13.5875C13.5208 13.1958 13.05 13 12.5 13C11.95 13 11.4792 13.1958 11.0875 13.5875C10.6958 13.9792 10.5 14.45 10.5 15C10.5 15.55 10.6958 16.0208 11.0875 16.4125C11.4792 16.8042 11.95 17 12.5 17ZM19.5 17C20.05 17 20.5208 16.8042 20.9125 16.4125C21.3042 16.0208 21.5 15.55 21.5 15C21.5 14.45 21.3042 13.9792 20.9125 13.5875C20.5208 13.1958 20.05 13 19.5 13C18.95 13 18.4792 13.1958 18.0875 13.5875C17.6958 13.9792 17.5 14.45 17.5 15C17.5 15.55 17.6958 16.0208 18.0875 16.4125C18.4792 16.8042 18.95 17 19.5 17Z" fill="#D9D9D9"/>
</g>
</svg>
